<?xml version="1.0" encoding="iso-8859-1"?>
<!-- Generator: Adobe Illustrator 19.0.0, SVG Export Plug-In . SVG Version: 6.00 Build 0)  -->
<svg version="1.1" id="Layer_1" xmlns="http://www.w3.org/2000/svg" xmlns:xlink="http://www.w3.org/1999/xlink" x="0px" y="0px"
	 viewBox="0 0 512 512" style="enable-background:new 0 0 512 512;" xml:space="preserve">
<g>
	<g>
		<rect x="239.304" y="378.435" width="33.391" height="33.391"/>
	</g>
</g>
<g>
	<g>
		<rect x="372.87" y="378.435" width="33.391" height="33.391"/>
	</g>
</g>
<g>
	<g>
		<rect x="105.739" y="378.435" width="33.391" height="33.391"/>
	</g>
</g>
<g>
	<g>
		<path d="M478.609,82.183V50.087C478.609,22.468,456.141,0,428.522,0H294.957c-21.772,0-40.337,13.956-47.229,33.391h-86.337
			c-27.619,0-50.087,22.468-50.087,50.087s22.468,50.087,50.087,50.087h133.565c21.772,0,40.337-13.956,47.229-33.391h33.41
			l-28.12,178.087h-46.954v-83.478c0-13.739-15.731-21.599-26.717-13.359l-106.848,80.141v-66.783
			c0-13.768-15.772-21.585-26.718-13.359L6.674,281.598C2.479,284.755,0,289.701,0,294.957v200.348C0,504.527,7.479,512,16.696,512
			h478.609c9.217,0,16.696-7.473,16.696-16.696V294.957C512,292.837,478.94,84.276,478.609,82.183z M454.682,144.696h-52.321
			l7.03-44.522h38.261L454.682,144.696z M328.348,66.783c-9.217,0-16.696,7.473-16.696,16.696c0,9.206-7.49,16.696-16.696,16.696
			H161.391c-9.206,0-16.696-7.49-16.696-16.696s7.49-16.696,16.696-16.696h100.174c9.217,0,16.696-7.473,16.696-16.696
			c0-9.206,7.49-16.696,16.696-16.696h133.565c9.206,0,16.696,7.49,16.696,16.696v16.696H395.13H328.348z M172.522,428.522
			c0,9.223-7.479,16.696-16.696,16.696H89.044c-9.217,0-16.696-7.473-16.696-16.696v-66.783c0-9.223,7.479-16.696,16.696-16.696
			h66.783c9.217,0,16.696,7.473,16.696,16.696V428.522z M306.087,428.522c0,9.223-7.479,16.696-16.696,16.696h-66.783
			c-9.217,0-16.696-7.473-16.696-16.696v-66.783c0-9.223,7.479-16.696,16.696-16.696h66.783c9.217,0,16.696,7.473,16.696,16.696
			V428.522z M439.652,428.522c0,9.223-7.479,16.696-16.696,16.696h-66.783c-9.217,0-16.696-7.473-16.696-16.696v-66.783
			c0-9.223,7.479-16.696,16.696-16.696h66.783c9.217,0,16.696,7.473,16.696,16.696V428.522z M381.274,278.261l5.271-33.391h83.951
			l5.271,33.391H381.274z"/>
	</g>
</g>
<g>
</g>
<g>
</g>
<g>
</g>
<g>
</g>
<g>
</g>
<g>
</g>
<g>
</g>
<g>
</g>
<g>
</g>
<g>
</g>
<g>
</g>
<g>
</g>
<g>
</g>
<g>
</g>
<g>
</g>
</svg>
