<?xml version="1.0" encoding="iso-8859-1"?>
<!-- Generator: Adobe Illustrator 19.0.0, SVG Export Plug-In . SVG Version: 6.00 Build 0)  -->
<svg version="1.1" id="Layer_1" xmlns="http://www.w3.org/2000/svg" xmlns:xlink="http://www.w3.org/1999/xlink" x="0px" y="0px"
	 viewBox="0 0 512.005 512.005" style="enable-background:new 0 0 512.005 512.005;" xml:space="preserve">
<g>
	<g>
		<g>
			<path d="M490.669,149.338h-128v-42.667c0-11.782-9.551-21.333-21.333-21.333H290.52l27.23-54.459
				c5.269-10.538,0.998-23.353-9.541-28.622s-23.353-0.998-28.622,9.541l-23.586,47.171l-23.586-47.171
				c-5.269-10.538-18.083-14.81-28.622-9.541s-14.81,18.083-9.541,28.622l27.23,54.459h-50.815
				c-11.782,0-21.333,9.551-21.333,21.333v42.667h-128c-11.782,0-21.333,9.551-21.333,21.333v320
				c0,11.782,9.551,21.333,21.333,21.333h469.333c11.782,0,21.333-9.551,21.333-21.333v-320
				C512.002,158.889,502.451,149.338,490.669,149.338z M192.002,128.005h128v21.333h-128V128.005z M469.336,469.338H42.669V192.005
				h128h170.667h128V469.338z"/>
			<path d="M298.669,213.338H85.336c-11.782,0-21.333,9.551-21.333,21.333v192c0,11.782,9.551,21.333,21.333,21.333h213.333
				c11.782,0,21.333-9.551,21.333-21.333v-192C320.002,222.889,310.451,213.338,298.669,213.338z M106.669,320.005h64v21.333h-64
				V320.005z M213.336,320.005h64v21.333h-64V320.005z M277.336,277.338h-64v-21.333h64V277.338z M170.669,256.005v21.333h-64
				v-21.333H170.669z M106.669,384.005h64v21.333h-64V384.005z M213.336,405.338v-21.333h64v21.333H213.336z"/>
			<path d="M394.669,320.005c29.446,0,53.333-23.887,53.333-53.333c0-29.446-23.887-53.333-53.333-53.333
				s-53.333,23.887-53.333,53.333C341.336,296.117,365.223,320.005,394.669,320.005z M394.669,256.005
				c5.882,0,10.667,4.785,10.667,10.667c0,5.882-4.785,10.667-10.667,10.667s-10.667-4.785-10.667-10.667
				C384.002,260.789,388.787,256.005,394.669,256.005z"/>
			<path d="M394.669,341.338c-29.446,0-53.333,23.887-53.333,53.333s23.887,53.333,53.333,53.333s53.333-23.887,53.333-53.333
				S424.115,341.338,394.669,341.338z M394.669,405.338c-5.882,0-10.667-4.785-10.667-10.667s4.785-10.667,10.667-10.667
				s10.667,4.785,10.667,10.667S400.551,405.338,394.669,405.338z"/>
		</g>
	</g>
</g>
<g>
</g>
<g>
</g>
<g>
</g>
<g>
</g>
<g>
</g>
<g>
</g>
<g>
</g>
<g>
</g>
<g>
</g>
<g>
</g>
<g>
</g>
<g>
</g>
<g>
</g>
<g>
</g>
<g>
</g>
</svg>
