<?xml version="1.0" encoding="iso-8859-1"?>
<!-- Generator: Adobe Illustrator 16.0.0, SVG Export Plug-In . SVG Version: 6.00 Build 0)  -->
<!DOCTYPE svg PUBLIC "-//W3C//DTD SVG 1.1//EN" "http://www.w3.org/Graphics/SVG/1.1/DTD/svg11.dtd">
<svg version="1.1" id="Capa_1" xmlns="http://www.w3.org/2000/svg" xmlns:xlink="http://www.w3.org/1999/xlink" x="0px" y="0px"
	 width="800px" height="800px" viewBox="0 0 800 800" style="enable-background:new 0 0 800 800;" xml:space="preserve">
<g>
	<path d="M199.157,84.831C199.157,37.978,235.209,0,279.696,0s80.603,37.978,80.603,84.831c0,46.854-36.116,84.787-80.603,84.787
		S199.157,131.685,199.157,84.831z M581.137,325.26c-2.756-20.963-1.43-48.134,21.202-59.071c0,0-2.797-10.113-15.984-1.453
		c-13.146,8.658-21.498,6.466-25.662,1.453c-2.418-2.973-9.381-13.086-17.542-13.411c-8.1-0.37-15.062,10.438-17.438,13.411
		c-4.206,5.014-12.556,7.206-25.703-1.453c-13.188-8.661-15.923,1.453-15.923,1.453c12.452,6.033,18.09,17.209,20.509,29.362
		c1.39,6.966-40.386,16.493-46.886,16.146c-17.94-0.911-23.222-16.97-31.089-31.445c-5.951-10.98-12.641-21.505-20.171-31.359
		c-12.601-16.428-27.555-30.902-44.677-42.057c-13.23-8.616-27.682-15.212-42.764-19.4c-2.293-0.629-32.666-5.838-32.604-5.122
		c0.021,0.13,17.27,189.41,17.27,189.41l-25.242,30.902l-28.879-30.902c0,0,21.833-189.323,21.56-189.323
		c-22.17-0.544-94.591,6.575-145.262,115.928c-23.685,51.063,29.826,132.854,65.689,158.528c5.027,3.624,10.748,5.316,16.344,5.316
		c1.157,0,2.166-0.649,3.323-0.825l-0.525,10.113l-30.121,286.763c-2.167,20.682,12.178,39.259,32.014,41.534
		c1.324,0.197,2.65,0.24,3.975,0.24c18.216,0,33.907-14.257,35.885-33.594l31.089-295.877l46.759,297.895
		C333.187,786.871,348.521,800,365.916,800c1.936,0,3.913-0.13,5.911-0.499c19.708-3.343,33.045-22.721,29.827-43.272L355.4,461.742
		c0-0.327,0.146-0.563,0.146-0.892l-15.207-195.876c14.555,11.98,29.489,30.123,42.257,57.639
		c10.792,23.396,29.68,39.801,53.048,46.333c7.7,2.104,15.65,3.168,23.854,3.168c0.948,0,1.936-0.26,2.903-0.303
		c-29.32,38.997-51.533,90.667-51.533,133.594c0,79.014,60.284,143.121,134.535,143.121c74.335,0,134.599-64.107,134.599-143.121
		C680,442.925,630.61,356.641,581.137,325.26z M214.365,398.263c-21.077-21.962-40.617-62.131-36.432-73.72
		c13.946-30.229,29.238-49.217,43.247-61.284L214.365,398.263z M551.773,547.461v24.436h-14.197v-23.74
		c-13.083-0.262-26.629-4.493-34.496-10.396l5.405-15.712c8.056,5.644,19.836,10.092,32.478,10.092
		c15.985,0,26.882-9.656,26.882-23.046c0-12.956-8.792-20.897-25.534-27.952c-23.013-9.438-37.209-20.227-37.209-40.669
		c0-19.51,13.312-34.331,34.031-37.847V378.82h14.009v22.852c13.567,0.455,22.76,4.231,29.322,8.182l-5.637,15.537
		c-4.754-2.819-14.01-7.965-28.439-7.965c-17.354,0-23.895,10.766-23.895,20.248c0,12.174,8.351,18.316,28.018,26.758
		c23.181,9.874,34.938,22.138,34.938,43.077C587.449,526.041,574.996,543.445,551.773,547.461z"/>
</g>
<g>
</g>
<g>
</g>
<g>
</g>
<g>
</g>
<g>
</g>
<g>
</g>
<g>
</g>
<g>
</g>
<g>
</g>
<g>
</g>
<g>
</g>
<g>
</g>
<g>
</g>
<g>
</g>
<g>
</g>
</svg>
