<?xml version="1.0" encoding="iso-8859-1"?>
<!-- Generator: Adobe Illustrator 16.0.0, SVG Export Plug-In . SVG Version: 6.00 Build 0)  -->
<!DOCTYPE svg PUBLIC "-//W3C//DTD SVG 1.1//EN" "http://www.w3.org/Graphics/SVG/1.1/DTD/svg11.dtd">
<svg version="1.1" id="Capa_1" xmlns="http://www.w3.org/2000/svg" xmlns:xlink="http://www.w3.org/1999/xlink" x="0px" y="0px"
	 width="800px" height="800px" viewBox="0 0 800 800" style="enable-background:new 0 0 800 800;" xml:space="preserve">
<g>
	<path d="M318.161,84.755c0-46.82,37.125-84.755,82.93-84.755c45.804,0,82.971,37.935,82.971,84.755
		c0,46.843-37.167,84.755-82.971,84.755C355.286,169.51,318.161,131.598,318.161,84.755z M492.344,209.462
		c-12.062-9.548-24.588-17.72-39.101-22.851c-13.48-4.775-27.684-7.444-41.884-8.431l21.408,229.697L401.864,444.9l-35.332-37.023
		l26.824-230.023c-15.502,0.532-31.077,3.071-45.708,8.41c-5.974,2.17-11.807,4.818-17.296,8.094
		c-9.625,5.751-18.476,12.695-26.845,20.28c-41.346,37.424-63.733,102.398-68.47,198.622c-0.816,16.504,11.612,30.557,27.758,31.38
		c0.505,0.033,0.998,0.044,1.503,0.044c15.49,0,28.424-12.411,29.208-28.405c3.212-65.182,15.866-113.782,36.643-142.72
		c-1.494,30.328-4.137,85.34-6.5,141.536c-0.15,1.021-0.431,1.985-0.506,3.028L299.75,756.1
		c-1.482,21.364,14.266,39.897,35.17,41.416c0.914,0.064,1.826,0.099,2.718,0.099c19.744,0,36.396-15.614,37.812-36.046
		l18.423-266.092c2.9-0.825,5.758-1.562,8.218-1.562c2.911,0,5.703,0.529,8.528,0.889l17.038,268.936
		C428.955,784.245,445.648,800,465.488,800c0.816,0,1.654-0.021,2.493-0.076c20.914-1.388,36.759-19.835,35.417-41.21
		l-20.239-319.356c-0.106-1.78-0.505-3.461-0.826-5.146c-1.698-48.894-7.176-121.278-10.323-160.611
		c21.205,28.982,33.15,77.083,34.449,141.786c0.333,16.31,13.365,29.297,29.874,29.286c16.157-0.336,28.994-13.998,28.661-30.521
		C563.007,314.877,538.557,246.007,492.344,209.462z"/>
</g>
<g>
</g>
<g>
</g>
<g>
</g>
<g>
</g>
<g>
</g>
<g>
</g>
<g>
</g>
<g>
</g>
<g>
</g>
<g>
</g>
<g>
</g>
<g>
</g>
<g>
</g>
<g>
</g>
<g>
</g>
</svg>
