<?xml version="1.0" encoding="utf-8"?>
<!-- Svg Vector Icons : http://www.onlinewebfonts.com/icon -->
<!DOCTYPE svg PUBLIC "-//W3C//DTD SVG 1.1//EN" "http://www.w3.org/Graphics/SVG/1.1/DTD/svg11.dtd">
<svg version="1.1" xmlns="http://www.w3.org/2000/svg" xmlns:xlink="http://www.w3.org/1999/xlink" x="0px" y="0px" viewBox="0 0 1000 1000" enable-background="new 0 0 1000 1000" xml:space="preserve">
<metadata> Svg Vector Icons : http://www.onlinewebfonts.com/icon </metadata>
<g><g transform="translate(0.000000,511.000000) scale(0.100000,-0.100000)"><path d="M4866.4,5002.9c-424.7-48.1-767.3-440.8-765.3-877.5c2-540.9,496.9-967.7,1023.8-887.5c494.9,78.1,835.4,536.9,759.3,1021.8C5804.1,4756.5,5387.3,5061,4866.4,5002.9z"/><path d="M3920.8,2935.4c-72.1-36.1-342.6-200.3-601-362.6c-967.7-609.1-951.6-597-933.6-781.3c4-54.1,124.2-446.8,262.5-871.5c240.4-725.3,258.4-775.3,332.6-847.5c70.1-70.1,84.1-78.1,152.3-66.1c220.4,34.1,248.4,36.1,304.5,12c76.1-30,136.2-108.2,230.4-296.5c40.1-80.1,104.2-180.3,142.3-220.4c38.1-42.1,78.1-102.2,90.2-132.2c14-36.1,20-661.1,20-1871.2c0-1140,8-1849.2,20-1903.3c28-116.2,100.2-220.4,200.3-286.5c256.4-172.3,581-86.2,703.2,186.3l48.1,106.2l6,1568.7l4,1566.7h100.2h98.2l-4-1556.7c-4-1773.1-14-1674.9,160.3-1829.2c88.1-76.1,240.4-140.2,336.6-140.2c84.2,0,230.4,64.1,316.5,142.2c174.3,152.3,162.3,4,174.3,2121.7c10,1829.2,10,1875.2,50.1,1937.3c104.2,168.3,304.5,440.8,372.6,508.9c94.2,94.1,178.3,120.2,312.5,92.1c118.2-24,180.3,4,248.4,112.2c38.1,62.1,492.9,1426.5,540.9,1620.8c34.1,142.2-22,246.4-198.3,362.6c-352.6,232.4-1258.2,789.4-1400.4,863.5c-56.1,28-172.3,32.1-1011.8,32.1l-947.6-2L3920.8,2935.4z M5132.9,2829.2c-28.1-196.3-18-186.3-180.3-186.3h-144.3l-12,76.1c-8,40.1-18,104.2-26,140.2l-12,64.1h194.3h194.4L5132.9,2829.2z M5074.8,2596.8c16-46.1,124.2-1827.2,112.2-1849.2c-8-12-62.1-76.1-122.2-140.2l-106.2-116.2l-124.2,130.2l-124.2,128.2l56.1,911.6c32,500.9,62.1,923.6,66.1,937.6C4844.4,2632.8,5060.8,2632.8,5074.8,2596.8z M6651.5,1827.4c186.3-118.2,234.4-158.3,234.4-194.3c0-26.1-76.1-286.5-168.3-579c-94.2-294.5-176.3-577-182.3-629.1c-32.1-232.4-32.1-232.4-230.4-324.6c-100.2-44.1-190.3-82.2-200.4-82.2c-12,0-20,406.7-20,1081.9V2180l166.3-102.2C6341,2021.8,6521.3,1909.6,6651.5,1827.4z M3920.8,1090.2c0-589-8-1071.9-16-1071.9c-18,0-388.7,158.3-402.7,170.3c-2,4-14,82.1-24,174.3c-14,114.2-62.1,294.5-156.3,577c-156.3,464.8-232.4,717.2-220.4,729.3c24,24,787.4,492.9,801.4,492.9C3912.8,2162,3920.8,1679.2,3920.8,1090.2z"/></g></g>
</svg>